<?xml version="1.0" encoding="UTF-8" standalone="no"?>
<svg
   width="30.020535mm"
   height="42.640598mm"
   viewBox="0 0 30.020535 42.640598"
   version="1.1"
   id="svg8"
   inkscape:version="1.1 (c4e8f9ed74, 2021-05-24)"
   sodipodi:docname="favicon-dark.svg"
   inkscape:export-filename="/Users/lenamuller/Desktop/glpp_whitebackground.png"
   inkscape:export-xdpi="802"
   inkscape:export-ydpi="802"
   xmlns:inkscape="http://www.inkscape.org/namespaces/inkscape"
   xmlns:sodipodi="http://sodipodi.sourceforge.net/DTD/sodipodi-0.dtd"
   xmlns="http://www.w3.org/2000/svg"
   xmlns:svg="http://www.w3.org/2000/svg"
   xmlns:rdf="http://www.w3.org/1999/02/22-rdf-syntax-ns#"
   xmlns:cc="http://creativecommons.org/ns#"
   xmlns:dc="http://purl.org/dc/elements/1.1/">
  <defs
     id="defs2" />
  <sodipodi:namedview
     inkscape:snap-global="true"
     id="base"
     pagecolor="#353535"
     bordercolor="#666666"
     borderopacity="1.0"
     inkscape:pageopacity="1"
     inkscape:pageshadow="2"
     inkscape:zoom="0.4030163"
     inkscape:cx="-220.83474"
     inkscape:cy="-509.90493"
     inkscape:document-units="mm"
     inkscape:current-layer="layer1"
     inkscape:document-rotation="0"
     showgrid="false"
     inkscape:window-width="2498"
     inkscape:window-height="1447"
     inkscape:window-x="942"
     inkscape:window-y="304"
     inkscape:window-maximized="0"
     inkscape:snap-to-guides="true"
     units="mm"
     height="210mm"
     inkscape:pagecheckerboard="false"
     inkscape:showpageshadow="false"
     showborder="true"
     borderlayer="false">
    <inkscape:grid
       id="grid844"
       type="xygrid"
       originx="-41.298853"
       originy="-73.18964" />
  </sodipodi:namedview>
  <metadata
     id="metadata5">
    <rdf:RDF>
      <cc:Work
         rdf:about="">
        <dc:format>image/svg+xml</dc:format>
        <dc:type
           rdf:resource="http://purl.org/dc/dcmitype/StillImage" />
      </cc:Work>
    </rdf:RDF>
  </metadata>
  <g
     style="display:inline"
     inkscape:label="Katze"
     inkscape:groupmode="layer"
     id="layer1"
     transform="translate(-41.298853,-73.18964)">
    <path
       id="path847-7"
       style="fill:#ffffff;stroke-width:1.2898"
       d="m 261.70703,276.63281 c -7.51785,-0.43409 -19.22993,12.61908 -27.75391,23.70313 -17.86817,23.23465 -30.57241,33.39415 -44.4746,9.02734 -5.85725,-9.68553 -24.78153,-44.33655 -33.03711,-22.68164 -2.11638,28.51605 5.70691,79.05149 13.3789,106.5293 12.34188,30.12257 25.1876,47.83341 47.64453,44.07227 53.42954,-8.9485 53.41806,-97.68308 51.54297,-146.64648 -0.57467,-9.84981 -3.36286,-13.77653 -7.30078,-14.00391 z m -8.27148,18.36524 c 6.04699,-0.48329 8.50887,10.57079 8.51562,25.65234 -0.0791,24.87882 -7.19653,109.47535 -48.05664,108.28125 -40.86011,-1.1941 -47.38408,-80.54152 -48.8125,-123.20117 -0.63305,-18.90603 15.13744,16.96686 26.55078,22.98828 10.763,5.67832 20.86702,3.91472 28.96485,-1.69531 10.3989,-7.20416 16.72841,-16.24286 22.26367,-23.50977 4.3359,-5.69234 7.82559,-8.29595 10.57422,-8.51562 z"
       transform="scale(0.26458333)"
       sodipodi:nodetypes="sscccscssssssssss" />
    <path
       style="fill:#1a1a1a;fill-opacity:0;stroke:#000000;stroke-width:1.11567;stroke-dashoffset:4.7622;stroke-opacity:0;paint-order:stroke fill markers"
       id="path895"
       sodipodi:type="arc"
       sodipodi:cx="52.122635"
       sodipodi:cy="96.1819"
       sodipodi:rx="1.7751889"
       sodipodi:ry="2.0611446"
       sodipodi:start="0"
       sodipodi:end="6.1685521"
       sodipodi:arc-type="slice"
       d="m 53.897824,96.1819 a 1.7751889,2.0611446 0 0 1 -1.724322,2.060298 1.7751889,2.0611446 0 0 1 -1.823141,-1.942225 1.7751889,2.0611446 0 0 1 1.61984,-2.171605 1.7751889,2.0611446 0 0 1 1.915972,1.817774 L 52.122635,96.1819 Z" />
    <path
       sodipodi:nodetypes="ccc"
       d="m 52.586585,97.880811 c -1.349182,3.313849 -4.754396,-2.92555 -1.151918,-2.73465 1.01857,0.0205 1.772021,1.4863 1.151918,2.73465 z"
       style="fill:#ffffff;stroke-width:0.289629"
       id="path847-7-7-8-9" />
    <path
       id="path847-7-7-8-9-4"
       style="fill:#ffffff;stroke-width:0.287434"
       d="m 59.579504,97.776531 c 1.349182,3.263779 4.426302,-3.02621 1.151918,-2.69334 -1.01857,0.0203 -1.772021,1.46385 -1.151918,2.69334 z"
       sodipodi:nodetypes="ccc" />
  </g>
</svg>
