<?xml version="1.0" encoding="UTF-8" standalone="no"?>
<svg
   xmlns:dc="http://purl.org/dc/elements/1.1/"
   xmlns:cc="http://creativecommons.org/ns#"
   xmlns:rdf="http://www.w3.org/1999/02/22-rdf-syntax-ns#"
   xmlns:svg="http://www.w3.org/2000/svg"
   xmlns="http://www.w3.org/2000/svg"
   xmlns:sodipodi="http://sodipodi.sourceforge.net/DTD/sodipodi-0.dtd"
   xmlns:inkscape="http://www.inkscape.org/namespaces/inkscape"
   width="180mm"
   height="180mm"
   viewBox="0 0 180 180"
   version="1.1"
   id="svg8"
   inkscape:version="1.0 (4035a4f, 2020-05-01)"
   sodipodi:docname="glpp1.svg"
   inkscape:export-filename="/Users/lenamuller/Desktop/glpp_whitebackground.png"
   inkscape:export-xdpi="802"
   inkscape:export-ydpi="802">
  <defs
     id="defs2" />
  <sodipodi:namedview
     inkscape:snap-global="true"
     id="base"
     pagecolor="#ffffff"
     bordercolor="#666666"
     borderopacity="1.0"
     inkscape:pageopacity="1"
     inkscape:pageshadow="2"
     inkscape:zoom="0.8060326"
     inkscape:cx="377.87524"
     inkscape:cy="365.15992"
     inkscape:document-units="mm"
     inkscape:current-layer="layer1"
     inkscape:document-rotation="0"
     showgrid="false"
     inkscape:window-width="1575"
     inkscape:window-height="894"
     inkscape:window-x="185"
     inkscape:window-y="43"
     inkscape:window-maximized="0"
     inkscape:snap-to-guides="true"
     units="mm"
     height="210mm"
     inkscape:pagecheckerboard="false"
     inkscape:showpageshadow="false"
     showborder="true"
     borderlayer="false">
    <inkscape:grid
       id="grid844"
       type="xygrid" />
  </sodipodi:namedview>
  <metadata
     id="metadata5">
    <rdf:RDF>
      <cc:Work
         rdf:about="">
        <dc:format>image/svg+xml</dc:format>
        <dc:type
           rdf:resource="http://purl.org/dc/dcmitype/StillImage" />
        <dc:title />
      </cc:Work>
    </rdf:RDF>
  </metadata>
  <g
     sodipodi:insensitive="true"
     style="display:inline"
     inkscape:label="Katze"
     inkscape:groupmode="layer"
     id="layer1">
    <path
       id="path847-7"
       style="fill:#1a1a1a;stroke-width:0.341259"
       d="m 54.010639,146.68854 c -0.418988,-9.291 -0.362502,-20.18797 -0.912282,-29.48446 -0.250669,-4.23859 -5.478289,-3.53896 -8.166504,-13.16699 -2.029881,-7.270169 -4.099869,-20.640947 -3.53991,-28.185819 2.184289,-5.729528 7.191187,3.438367 8.740917,6.000998 3.678288,6.447052 7.039551,3.758913 11.767171,-2.388588 3.436652,-4.468808 8.832436,-10.14726 9.274758,-2.56589 0.496118,12.9549 -0.266097,33.636179 -13.637147,38.799809 -4.020163,1.42257 -1.608293,8.33057 -1.954705,16.67725 -0.346411,8.34666 0.824301,23.47205 1.482199,26.35368 0.373476,1.63584 0.852285,4.64023 1.749785,4.53814 1.916725,-0.21805 1.498261,-4.27653 1.666292,-6.51418 0.520143,-6.92671 -1.121224,-17.79239 1.991392,-22.5533 3.610213,-5.52203 7.111037,1.30207 6.945304,6.91084 -0.09891,3.34731 -1.210902,24.11758 1.131753,24.3559 2.85538,0.29049 0.684762,-23.47281 5.269833,-28.77697 4.585071,-5.30414 11.252436,-7.1053 18.842847,-7.73499 5.674288,-0.47072 17.555288,-0.91729 20.076388,5.11533 3.65944,8.75655 1.61004,27.62223 3.84162,26.87577 2.72464,-0.91138 0.65771,-16.29483 2.44919,-26.55825 0.81037,-4.64259 3.04675,-6.50414 5.47282,-1.90064 2.19063,4.15678 0.78758,33.0655 4.10694,30.56869 3.24979,-2.44447 0.72942,-45.45623 0.36102,-51.12601 -1.40573,-17.414699 -2.76532,-28.86542 -3.08548,-44.895802 -0.21421,-9.864282 -0.21906,-21.026265 -0.39938,-30.510376 5.14043,-0.498557 9.12922,-1.249686 9.0422,-7.987787 -0.087,-6.738102 -4.0406,-10.353717 -9.92168,-8.725835 -0.0415,4.372435 -0.10223,7.426275 -0.0861,13.969658 0.0184,7.502029 -0.78288,27.832946 -0.85492,37.284084 -0.21505,28.210869 -4.63996,33.383428 -9.24829,34.770528 -11.92344,2.77624 -43.188303,3.84893 -47.110438,0.0655 -2.081181,-2.00754 0.573324,0.27183 14.392099,0.0333 13.818781,-0.2385 24.700359,-1.86632 31.206339,-2.89627 6.72317,-1.86342 7.34759,-11.236129 7.8744,-45.063948 0.44331,-28.46681 0.14225,-39.857868 0.26307,-42.68196 3.00158,-0.01565 5.66743,-0.326885 7.86764,0.04924 6.66405,1.139228 9.67645,4.8606 9.79415,12.249296 0.15654,9.828165 -4.44443,11.501229 -10.08904,13.293887 -0.3952,2.938077 -0.78303,16.402841 0.16972,26.211927 0.61181,6.298755 2.39147,56.850908 3.07241,63.757858 0.68093,6.90694 1.10836,33.8652 -3.21548,34.37636 -6.81221,0.80535 -3.4739,-34.28484 -6.58905,-32.12804 -3.41441,2.36399 -0.1132,26.58891 -4.15118,29.02951 -3.99978,2.41747 -4.75243,-3.96185 -4.86972,-14.7038 -0.0804,-7.36389 -1.18527,-16.88688 -10.92557,-16.92955 -9.409688,-0.0413 -14.849679,0.78839 -19.243299,2.38306 -10.669552,3.87252 -9.992606,12.06667 -11.024577,26.57817 -0.559147,7.86267 -3.845511,9.7425 -5.355633,4.65826 -2.163357,-7.28354 0.0054,-19.35929 -1.460657,-26.77974 -1.401822,-7.09552 -4.57316,-0.29349 -4.638547,4.05491 -0.09781,6.50477 0.613519,21.05086 -2.217156,22.60655 -2.830676,1.5557 -4.552785,-0.32047 -6.155428,-17.30939 z M 69.308104,84.83852 c -0.0026,-5.80411 -1.379806,-9.353611 -5.050872,-4.534093 -1.464537,1.922702 -3.139149,4.314253 -5.890526,6.220354 -2.14255,1.48432 -4.816283,1.95127 -7.663994,0.44888 -3.01978,-1.593168 -7.192273,-11.084905 -7.024779,-6.082684 0.377935,11.287034 2.104308,32.281093 12.915212,32.597033 10.810904,0.31594 12.69403,-22.066969 12.714959,-28.64949 z"
       sodipodi:nodetypes="cssccscczsssssszssssssccczcsscszcscsscszsssssssssszcccssszcc" />
    <path
       style="fill:#1a1a1a;fill-opacity:0;stroke:#000000;stroke-width:1.11567;stroke-dashoffset:4.7622;stroke-opacity:0;paint-order:stroke fill markers"
       id="path895"
       sodipodi:type="arc"
       sodipodi:cx="52.122635"
       sodipodi:cy="96.1819"
       sodipodi:rx="1.7751889"
       sodipodi:ry="2.0611446"
       sodipodi:start="0"
       sodipodi:end="6.1685521"
       sodipodi:arc-type="slice"
       d="m 53.897824,96.1819 a 1.7751889,2.0611446 0 0 1 -1.724322,2.060298 1.7751889,2.0611446 0 0 1 -1.823141,-1.942225 1.7751889,2.0611446 0 0 1 1.61984,-2.171605 1.7751889,2.0611446 0 0 1 1.915972,1.817774 L 52.122635,96.1819 Z" />
    <path
       sodipodi:nodetypes="ccc"
       d="m 52.586585,97.880811 c -1.349182,3.313849 -4.754396,-2.92555 -1.151918,-2.73465 1.01857,0.0205 1.772021,1.4863 1.151918,2.73465 z"
       style="fill:#1a1a1a;stroke-width:0.289629"
       id="path847-7-7-8-9" />
    <path
       id="path847-7-7-8-9-4"
       style="fill:#1a1a1a;stroke-width:0.287434"
       d="m 59.579504,97.776531 c 1.349182,3.263779 4.426302,-3.02621 1.151918,-2.69334 -1.01857,0.0203 -1.772021,1.46385 -1.151918,2.69334 z"
       sodipodi:nodetypes="ccc" />
  </g>
  <g
     sodipodi:insensitive="true"
     inkscape:groupmode="layer"
     id="g853"
     inkscape:label="GLP"
     style="display:inline">
    <g
       style="font-style:normal;font-variant:normal;font-weight:normal;font-stretch:normal;font-size:38.8056px;line-height:1.35;font-family:'Comic Sans MS';-inkscape-font-specification:'Comic Sans MS, Normal';font-variant-ligatures:normal;font-variant-caps:normal;font-variant-numeric:normal;font-variant-east-asian:normal;opacity:0.98;fill:#1a1a1a;stroke-width:2.056;stroke-miterlimit:4;stroke-dasharray:none"
       id="text851"
       transform="matrix(1.1180927,0,0,1.4878785,-11.287121,-2.6819562)"
       aria-label="GLP">
      <path
         sodipodi:nodetypes="cczcszccsccc"
         id="path855"
         d="M 59.979765,43.288194 C 51.113832,42.90745 49.726316,32.957316 49.613196,27.415406 49.412644,21.853956 53.251351,11.763163 61.744174,12.11124 c 8.492822,0.348077 12.418989,7.328286 7.805596,5.078901 -4.877893,-2.18087 -8.418346,-2.446438 -11.145832,-0.847483 -6.471962,3.794109 -6.356506,15.611612 -3.306239,20.698173 3.050268,5.086562 8.809904,3.987662 12.140415,1.295663 1.755852,-1.515844 2.406522,-5.471748 2.4806,-8.568808 -2.689834,-0.356044 -12.835695,0.475745 -10.936877,-1.716058 1.185995,-1.368993 5.364278,-1.209436 12.046622,-1.209436 1.356359,0.130138 2.15392,1.558288 2.164633,2.404463 0.129571,9.312628 -3.538162,14.094399 -13.013327,14.041539 z" />
      <path
         sodipodi:nodetypes="cccssccc"
         d="m 77.81309,13.708105 c 1.307981,-3.150821 3.728679,-1.69358 3.757094,2.354492 0.414137,8.574988 -0.316743,16.737985 0.288982,24.019688 3.388142,0.08875 10.075042,-0.222265 11.900669,1.028294 2.959644,2.027363 -1.165311,1.862287 -8.418505,1.976837 -4.203282,0.06638 -5.233089,0.174718 -7.641441,0.103512 -0.110383,-8.498135 0.112262,-20.31003 0.113192,-29.482823 z"
         id="path857" />
      <path
         sodipodi:nodetypes="cscczcccccc"
         id="path859"
         d="m 102.32992,29.983065 c -0.10106,1.907437 0.61514,6.822293 -0.0581,11.57027 -0.3146,2.218655 -3.438476,2.325435 -3.467488,0 0.0049,-9.125297 -0.131052,-29.3775 -0.131052,-29.3775 9.25631,-0.822418 17.27335,0.967853 17.18557,8.067935 -0.0878,7.100082 -5.06778,9.444422 -13.5289,9.739295 z m 0.39916,-14.713035 c 0.0242,3.678863 0.19813,7.419107 0.004,11.093958 6.96508,-0.265699 9.35233,-2.069854 9.48201,-5.590657 -0.33718,-4.850683 -4.15918,-6.318994 -9.48601,-5.503301 z" />
    </g>
  </g>
</svg>
